<?xml version="1.0" standalone="no"?>
<!DOCTYPE svg PUBLIC "-//W3C//DTD SVG 20010904//EN"
 "http://www.w3.org/TR/2001/REC-SVG-20010904/DTD/svg10.dtd">
<svg version="1.0" xmlns="http://www.w3.org/2000/svg"
 width="900.000000pt" height="900.000000pt" viewBox="0 0 900.000000 900.000000"
 preserveAspectRatio="xMidYMid meet">

<g transform="translate(0.000000,900.000000) scale(0.100000,-0.100000)"
fill="#000000" stroke="none">
<path d="M5203 6820 c-81 -12 -148 -40 -207 -87 -100 -78 -134 -169 -142 -383
-3 -74 -7 -140 -9 -147 -3 -8 -24 -6 -77 8 -156 41 -256 53 -468 53 -234 0
-338 -14 -512 -70 -493 -159 -766 -534 -745 -1024 9 -209 77 -414 192 -574 60
-84 186 -202 263 -246 85 -48 81 -70 -13 -70 -68 0 -194 -44 -259 -91 -69 -49
-136 -137 -166 -217 -28 -72 -37 -209 -20 -283 32 -139 129 -269 253 -339 32
-18 56 -37 55 -42 -2 -6 -29 -20 -59 -33 -144 -58 -265 -168 -329 -299 -48
-96 -60 -156 -60 -285 0 -174 48 -292 164 -407 151 -149 419 -244 818 -291
210 -25 769 -25 968 0 644 80 996 294 1076 655 22 100 15 295 -16 400 -73 259
-259 433 -573 537 -235 77 -435 103 -917 115 -496 12 -533 15 -626 45 -155 49
-219 128 -212 256 5 84 36 130 114 166 79 36 139 39 294 12 188 -31 462 -32
634 0 454 82 771 317 891 659 134 382 49 813 -214 1085 -36 38 -88 85 -116
105 -27 20 -53 41 -57 47 -4 5 -8 52 -8 102 l0 93 353 2 352 3 3 264 c2 186
-1 268 -9 277 -9 11 -65 14 -288 13 -152 -1 -299 -5 -328 -9z m-668 -1070 c84
-26 124 -50 189 -110 57 -53 102 -138 122 -229 18 -87 18 -306 -1 -394 -39
-186 -152 -304 -338 -354 -87 -24 -308 -23 -396 0 -186 50 -296 166 -336 354
-22 105 -20 321 5 418 49 191 170 295 388 335 84 16 289 4 367 -20z m405
-2634 c204 -40 288 -119 298 -277 4 -62 1 -82 -16 -115 -40 -78 -116 -129
-262 -178 -336 -111 -952 -95 -1215 33 -99 48 -152 93 -190 162 -25 46 -30 67
-33 144 -3 87 -2 92 30 145 26 42 45 61 88 83 l55 28 580 -4 c490 -4 593 -7
665 -21z"/>
<path d="M6583 4039 c-197 -62 -327 -241 -327 -449 0 -376 412 -597 730 -392
280 181 281 602 1 783 -120 78 -272 100 -404 58z"/>
</g>
</svg>
